<svg version="1" xmlns="http://www.w3.org/2000/svg" width="1365.333" height="1365.333" viewBox="0 0 1024.000000 1024.000000"><path d="M488 .6c-44.2 2.9-76.4 8.1-113.8 18.6C304.5 38.5 240.8 72.1 183 119.8c-14.8 12.3-50.9 48.4-63.2 63.2C77.5 234.3 47.4 288 27 348.9 13.8 388.4 6.3 424.1 1.9 468.5c-1.9 19.2-1.7 71.9.5 92C13.7 667 52.3 759.3 119.8 841c12.3 14.8 48.4 50.9 63.2 63.2 69.4 57.3 145.8 93.5 234 110.7 31.5 6.2 57.9 8.5 95.5 8.5 39.3-.1 62.2-2.2 97-9 102-19.9 194.1-69.4 267.1-143.6 24.9-25.3 42.3-46.5 61.1-74.9 47.3-71 74.4-146.9 83.9-235.4 2.2-19.9 2.5-72.5.6-92-10.8-109-49.3-202.3-118-285.5-12.3-14.8-48.4-50.9-63.2-63.2C759.1 52.2 666.4 13.3 561 2.5c-13.9-1.4-61.4-2.7-73-1.9zm55.5 160.6c.3.3-.1 8-1 17.2-2.2 24-2.4 22.4 3.3 23.1 13.3 1.8 30.8 4.9 40 7.2 8 2 10.6 2.3 11.2 1.4.4-.7 2.9-9 5.5-18.4 2.6-9.5 5-17.5 5.3-17.9 2-2.1 60.2 20.5 60.2 23.4 0 .4-3.9 8.6-8.6 18-4.7 9.5-8.2 17.4-7.7 17.5 3.4 1.2 24.9 13.9 35.1 20.9 6.8 4.6 12.6 8.4 13 8.4.4-.1 5.9-7 12.2-15.5 6.3-8.5 11.6-15.5 11.8-15.5 1.4 0 23.9 19.6 35 30.4l13.3 13-9.3 8.5c-5.1 4.7-11.7 10.9-14.7 13.7l-5.4 5.1 5.9 6.9c7.5 8.7 16.5 20.6 23.3 30.6 2.8 4.3 5.4 7.8 5.6 7.8.3 0 7.7-4.5 16.5-10s16.3-10 16.7-10c.9 0 12 19.4 17.1 29.5 2.8 5.7 12.2 27.2 12.2 28 0 .2-8.3 3.6-18.4 7.5l-18.3 7.2 4.7 14.2c2.6 7.7 6 19.5 7.5 26.1 3.5 15.4 3.1 14.5 5.2 14.5 1 0 9.7-1.5 19.3-3.4 9.6-1.9 17.6-3.3 17.7-3.2 1.5 1.4 5.2 32.4 6 49.8l.6 14.8h-40l-.7 16.7c-.4 9.3-1.5 22.2-2.5 28.8-1 6.6-1.4 12.2-1 12.5.5.4 9.2 2.1 19.4 4l18.5 3.3-.6 3.6c-2.1 12.4-14.9 56.8-16.9 58.9-.2.2-8.1-2.6-17.7-6.3-9.5-3.7-17.8-6.9-18.4-7.2-.6-.2-2.3 2.7-3.9 6.4-3.9 9.4-13.9 29.4-18.8 37.6-2.2 3.8-3.6 7.2-3.1 7.6.5.4 8 5.2 16.7 10.5 8.6 5.3 15.7 9.9 15.7 10.2 0 3-36.4 51.4-38.7 51.4-.5 0-5.1-4-19.8-17.5l-9.5-8.7-13.3 12.8c-7.3 7.1-16.9 15.8-21.4 19.3l-8.1 6.4 12 16c6.6 8.7 11.6 16.2 11.1 16.6-9 8-53.1 34.7-54.6 33.1-.3-.3-4.3-8.2-9-17.7l-8.6-17.1-12.3 5.5c-6.8 3-18.6 7.6-26.3 10.1-7.7 2.6-14.2 4.8-14.4 4.9-.2.2 2 8.6 4.9 18.8 3.2 11 4.9 18.9 4.4 19.5-2.6 2.5-51.6 12-61.9 12-.8 0-1.7-6.7-2.9-19.8-1-10.8-1.8-19.7-1.9-19.8-.1 0-5.4.3-11.7.8-6.3.4-18.9.5-28 .2-9.1-.4-16.7-.6-17-.6-.5.1-2.1 14.1-3.5 31l-.7 8.4-6.1-.7c-20.3-2.2-57.7-9.9-57.7-12 0-.2 2.2-8.4 5-18.1 2.7-9.7 5-18.1 5-18.8-.1-.6-6.7-3.3-14.8-5.9-8.1-2.7-20-7.3-26.5-10.2l-11.8-5.3-8.5 17.1c-4.8 9.5-8.8 17.4-9 17.6-2.1 2.2-56.2-31.7-54.7-34.3.5-.8 18-24.3 22.4-30.1.4-.6-2.4-3.5-6.9-7-4.2-3.3-13.8-12-21.3-19.3L281.2 724 267 737c-7.9 7.1-14.6 13-15.1 13-.4 0-4.2-4.2-8.5-9.3-15.2-18-31.5-41.4-29.7-42.6.6-.3 8-5 16.6-10.4 8.7-5.4 15.7-10 15.7-10.3 0-.3-2-4-4.5-8.2-3.6-6.4-13.3-26.1-19.6-39.8l-1.4-3.2-17.5 6.9c-9.6 3.7-18 6.8-18.6 6.9-2.4 0-16.8-48.2-17.6-58.9l-.3-3.4 19.3-3.6 19.2-3.6-.5-2.5c-1.6-7.4-3.6-26.3-4.2-39.8l-.6-15.2h-40l.6-15.3c.8-18.1 4.3-47.7 5.8-49.1.2-.2 8.5 1.1 18.4 3 9.9 1.9 18.6 3.4 19.2 3.4.7 0 1.5-1 1.7-2.3 3-13.9 7.4-30.4 10.7-40.1 2.2-6.5 3.7-12.2 3.2-12.6-.4-.4-8.6-3.8-18-7.4-9.5-3.7-17.3-7.2-17.3-7.7 0-3.6 18.1-41.1 25.6-53.1l2.9-4.6 16.8 10.5c9.3 5.7 17 10.3 17.1 10.1.2-.2 2.7-3.9 5.6-8.3 6.7-10 15.7-22 23.2-30.6l5.7-6.7-14.4-13.2c-8-7.2-14.5-13.5-14.5-13.9 0-2.5 42.7-41.4 47-42.9.4-.2 6.1 6.6 12.5 15 6.5 8.4 12 15.2 12.4 15.1.3-.1 7-4.4 14.8-9.6 7.8-5.2 18.5-11.8 23.7-14.7 5.3-2.8 9.6-5.3 9.6-5.6 0-.2-3.8-8.1-8.5-17.4-4.7-9.3-8.5-17.2-8.5-17.5 0-2.4 53-23.5 59-23.5 1.1 0 2.9 4.8 6.8 18.9l5.4 18.8 11.3-2.8c9.8-2.5 25.4-5.3 40.6-7.4l4.5-.6-1.8-18.2c-.9-10-1.7-19-1.8-19.9 0-1.4 1.2-1.8 6.3-2.1 8.5-.6 57.6-.2 58.2.5z"/><path d="M487 264.1c-4.7.5-9 1.1-9.6 1.3-.7.3-.8 2.5-.1 7.5l1 7.1 7.1-.8c9-.9 44-.9 52.8 0l6.6.7.7-4.2c.3-2.3.9-5.6 1.2-7.3.5-3.1.4-3.2-3.9-3.8-8.3-1.1-47.4-1.5-55.8-.5zM396 291.6c-15.9 8.5-45.6 29-46.8 32.2-.1.5 1.9 3.1 4.5 6l4.8 5.2 7.5-6c10.5-8.5 24.8-17.9 37.3-24.5 10.1-5.3 10.6-5.7 9.7-8-1.7-4.4-5-10.5-5.8-10.5-.4 0-5.4 2.5-11.2 5.6zM612.2 292.2l-2.8 6.3 10 5.3c12 6.4 29.4 17.8 39 25.5l6.9 5.5 4.8-5.6c3.8-4.4 4.6-5.9 3.6-6.7-.7-.6-5.1-4-9.7-7.6-4.7-3.7-12.5-9.2-17.5-12.4-9.8-6.3-28.5-16.5-30.3-16.5-.7 0-2.5 2.8-4 6.2zM299 382.7c-6 9.4-18 35-22.1 47.1-2.3 6.7-4 12.4-3.8 12.6.2.2 3.4 1.2 7.1 2.3l6.7 2 2.6-8.1c4.1-12.9 11.1-28.4 18-40.7 3.6-6.2 6.5-11.5 6.5-11.8 0-.4-1.5-1.5-3.3-2.7-1.7-1.1-4.4-2.8-5.9-3.8l-2.7-1.8-3.1 4.9zM714.9 381.8l-5.7 3.7 4 6.5c8.2 13.5 20.3 40.4 22.3 49.7.3 1.8 1 3.5 1.4 3.7.8.5 14.1-3.2 14.1-3.9 0-1.1-7.4-21.3-10.5-28.5-5.9-13.8-17.6-35-19.4-35-.3 0-3.1 1.7-6.2 3.8zM331 511.5V572h37v-49h47v-24l-23.2-.2-23.3-.3-.3-10.8-.3-10.7H423v-26h-92v60.5zM440 489.5c0 42 .6 48.6 5.7 59.3 5 10.7 17.1 20.2 29.4 23.2 2.4.6 11.4 1.3 19.9 1.6 12.1.5 17.1.3 23-1 18.1-3.9 29.4-14.1 35.8-32.5 1.3-3.8 1.6-11.5 1.9-46.9l.4-42.2H519v38.7c0 23.6-.4 40.3-1 42.5-2.3 8.3-10.2 13.8-20 13.8s-17.7-5.5-20-13.8c-.6-2.2-1-18.9-1-42.5V451h-37v38.5zM578 511.5V572h35l.2-32.6.3-32.6 22 32.6 22 32.5 17.8.1H693V451h-35l-.2 33.5-.3 33.5-22.5-33.2-22.5-33.3-17.2-.3-17.3-.2v60.5zM746.5 513.2c-.2.7-.6 7.1-.9 14.3-.5 13.5-3.1 30.6-6.5 43.5-1.1 4.1-1.8 7.6-1.7 7.8.2.1 3.3 1.1 7 2.2 4.9 1.4 6.8 1.6 7.1.7 5.1-16.5 9.5-44.8 9.5-61.4V512h-7c-4.8 0-7.2.4-7.5 1.2zM263.3 526.2c.4 7.3 1.3 17.7 2.2 23.2 1.9 12.3 6.2 31.7 7.3 32.8.5.5 3.9-.1 7.6-1.2 5.5-1.8 6.6-2.4 6.1-3.8-3.5-8.8-8.5-41.2-8.5-55.3V513h-15.3l.6 13.2zM308.8 643.8c-3.2 2-5.8 4.1-5.8 4.6 0 4.3 33.9 44.1 43.3 50.8l2.7 2 4.5-4.9c2.4-2.6 4.4-5.1 4.5-5.4 0-.4-4.1-4.6-9.1-9.5-9.9-9.7-23.1-25.2-29.8-35.2-2.3-3.4-4.3-6.2-4.4-6.1-.1 0-2.8 1.7-5.9 3.7zM703.6 647.9c-7.8 11.1-18.8 24.1-29 34l-8.6 8.3 1.9 2.7c1.1 1.4 3.3 3.9 5 5.5l3 2.9 9.2-8.9c13.6-13.3 35.9-40.7 35.9-44.2 0-.6-1.7-2.1-3.7-3.3-2.1-1.3-4.8-2.9-5.9-3.6-2.1-1.3-2.5-.9-7.8 6.6zM411.9 732.7c-1.3 3.2-2.5 6.1-2.7 6.5-.8 1.8 18 9.1 36.8 14.3 11.2 3.1 29.9 6.9 30.6 6.3.1-.2.5-3.5.9-7.3l.7-7.1-9.8-1.8c-13.5-2.5-28.7-6.9-42.1-12.2-6.1-2.4-11.3-4.4-11.5-4.4-.3 0-1.5 2.6-2.9 5.7zM598 731.2c-11.5 4.8-29 9.9-42.3 12.4l-9.9 1.8.7 6.6c.4 3.6 1 6.9 1.4 7.3 1 1 22-3.3 34-6.8 15.7-4.8 33.1-11.5 33.1-13 0-1.8-5.5-12.5-6.4-12.4-.6.1-5.4 1.9-10.6 4.1z"/></svg>